<svg width="150" height="300" viewBox="0 0 150 300" fill="none" xmlns="http://www.w3.org/2000/svg">
<path d="M149.997 130.868L188.327 92.5378C209.493 71.3711 209.493 37.0482 188.327 15.8832V15.875C167.162 -5.29166 132.84 -5.29166 111.668 15.875V15.8832C90.5014 37.0482 90.5014 71.3711 111.668 92.5378L149.997 130.868Z" fill="#BC002D"/>
<path d="M15.8747 188.342C37.0392 209.515 71.3679 209.515 92.5341 188.342L130.865 150.011L92.5341 111.679C71.3679 90.5125 37.0392 90.5125 15.8747 111.679C-5.29155 132.852 -5.29155 167.169 15.8747 188.342Z" fill="#BC002D"/>
<path d="M149.997 169.132L111.668 207.462C90.5014 228.636 90.5014 262.958 111.668 284.125C132.84 305.292 167.162 305.292 188.327 284.125C209.493 262.958 209.493 228.636 188.327 207.462L149.997 169.132Z" fill="#BC002D"/>
</svg>
