<svg width="200" height="650" viewBox="0 0 200 650" fill="none" xmlns="http://www.w3.org/2000/svg">
<g clip-path="url(#clip0_121_1935)">
<path d="M47.5923 1248H72.0455L67.4527 1240L110.984 1164.2H197.78L231.368 1222.69H342.882L397 1128.45V1125.6C397 1122.75 396.596 1122.04 393.45 1116.56L342.882 1028.51H231.368L197.78 1087H110.984L67.4527 1011.2L110.984 935.395H197.78L231.368 993.881H342.882L397 899.644V896.791C397 893.939 396.596 893.236 393.45 887.755L342.882 799.703H231.368L197.78 858.19H110.984L67.4527 782.389L110.984 706.589H197.78L231.368 765.074H342.882L397 670.837V667.985C397 665.132 396.596 664.428 393.45 658.948L342.882 570.895H231.368L197.78 629.381H110.984L67.4527 553.581L110.984 477.781H197.78L231.368 536.267H342.882L397 442.029V439.18C397 436.326 396.596 435.622 393.45 430.144L342.882 342.088H231.368L197.78 400.573H110.984L67.4527 324.775L110.984 248.974H197.78L231.368 307.459H342.882L397 213.223V210.371C397 207.518 396.596 206.814 393.45 201.334L342.882 113.281H231.368L197.78 171.767H110.984L67.4527 95.9667L110.984 20.1678H197.78L231.368 78.652H342.882L397 -15.5851V-18.4374C397 -21.288 396.596 -21.993 393.45 -27.4742L363.859 -79H339.406C350.841 -59.0882 367.414 -30.2311 374.186 -18.4374L330.655 57.3632H243.859L210.272 -1.12095H98.7588L43 95.9667L98.7588 193.056H210.272L243.859 134.57H330.655C339.543 150.044 365.302 194.898 374.186 210.371L330.655 286.171H243.859L210.272 227.685H98.7588L43 324.775L98.7588 421.863H210.272L243.859 363.376H330.655C339.543 378.852 365.302 423.706 374.186 439.18L330.655 514.977H243.859L210.272 456.493H98.7588L43 553.581L98.7588 650.669H210.272L243.859 592.185H330.655C339.543 607.659 365.302 652.514 374.186 667.985L330.655 743.786H243.859L210.272 685.299H98.7588L43 782.389L98.7588 879.477H210.272L243.859 820.993H330.655C339.541 836.465 365.302 881.319 374.186 896.791L330.655 972.592H243.859L210.272 914.106H98.7588L43 1011.2L98.7588 1108.28H210.272L243.859 1049.8H330.655C339.541 1065.27 365.302 1110.13 374.186 1125.6L330.655 1201.4H243.859L210.272 1142.91H98.7588L43 1240L47.5923 1248Z" fill="#F1F1F1"/>
</g>
<defs>
<clipPath id="clip0_121_1935">
<rect width="650" height="200" fill="white" transform="matrix(0 -1 1 0 0 650)"/>
</clipPath>
</defs>
</svg>
