<svg width="50" height="50" viewBox="0 0 50 50" fill="none" xmlns="http://www.w3.org/2000/svg">
<path d="M34.0715 31.297C37.5489 34.7744 43.1859 34.7744 46.6632 31.297C50.1395 27.8196 50.1395 22.1837 46.6632 18.7063C43.1859 15.23 37.5489 15.23 34.0715 18.7063L27.7773 25.0018L34.0715 31.297Z" fill="#E8E4DC"/>
<path d="M24.6348 21.8579L30.93 15.5627C34.4063 12.0864 34.4063 6.44935 30.93 2.97332V2.97197C27.454 -0.504329 21.817 -0.504329 18.3396 2.97197V2.97332C14.8633 6.44935 14.8633 12.0864 18.3396 15.5627L24.6348 21.8579Z" fill="#E8E4DC"/>
<path d="M2.60722 31.297C6.08325 34.7744 11.7213 34.7744 15.1976 31.297L21.4931 25.0018L15.1976 18.7063C11.7213 15.23 6.08325 15.23 2.60722 18.7063C-0.869075 22.1837 -0.869075 27.8196 2.60722 31.297Z" fill="#E8E4DC"/>
<path d="M24.6348 28.1421L18.3396 34.4373C14.8633 37.9147 14.8633 43.5517 18.3396 47.028C21.817 50.5043 27.454 50.5043 30.93 47.028C34.4063 43.5517 34.4063 37.9147 30.93 34.4373L24.6348 28.1421Z" fill="#E8E4DC"/>
</svg>
