<svg width="68" height="68" viewBox="0 0 68 68" fill="none" xmlns="http://www.w3.org/2000/svg">
<path d="M47.0245 42.6908C51.8237 47.49 59.6033 47.49 64.4025 42.6908C69.2002 37.8915 69.2002 30.1132 64.4025 25.3139C59.6033 20.5161 51.8237 20.5161 47.0245 25.3139L38.3379 34.0025L47.0245 42.6908Z" fill="#BC002D"/>
<path d="M33.9992 29.6635L42.6873 20.9752C47.485 16.1775 47.485 8.3976 42.6873 3.6002V3.59833C37.89 -1.19944 30.1103 -1.19944 25.3111 3.59833V3.6002C20.5135 8.3976 20.5135 16.1775 25.3111 20.9752L33.9992 29.6635Z" fill="#BC002D"/>
<path d="M3.59826 42.6908C8.39556 47.49 16.1767 47.49 20.9744 42.6908L29.6628 34.0025L20.9744 25.3139C16.1767 20.5161 8.39556 20.5161 3.59826 25.3139C-1.19942 30.1132 -1.19942 37.8915 3.59826 42.6908Z" fill="#BC002D"/>
<path d="M33.9992 38.3365L25.3111 47.0248C20.5135 51.8241 20.5135 59.6039 25.3111 64.4017C30.1103 69.1994 37.89 69.1994 42.6873 64.4017C47.485 59.6039 47.485 51.8241 42.6873 47.0248L33.9992 38.3365Z" fill="#BC002D"/>
</svg>
